Coordinates
version=1
nRows=14
nColumns=40
inDegrees=yes

Units are S.I. units (second, meters, Newtons, ...)
Angles are in degrees.

endheader
time	pelvis_tilt	pelvis_list	pelvis_rotation	pelvis_tx	pelvis_ty	pelvis_tz	hip_flexion_r	hip_adduction_r	hip_rotation_r	knee_angle_r	knee_angle_r_beta	ankle_angle_r	subtalar_angle_r	mtp_angle_r	hip_flexion_l	hip_adduction_l	hip_rotation_l	knee_angle_l	knee_angle_l_beta	ankle_angle_l	subtalar_angle_l	mtp_angle_l	lumbar_extension	lumbar_bending	lumbar_rotation	arm_flex_r	arm_add_r	arm_rot_r	elbow_flex_r	pro_sup_r	wrist_flex_r	wrist_dev_r	arm_flex_l	arm_add_l	arm_rot_l	elbow_flex_l	pro_sup_l	wrist_flex_l	wrist_dev_l
     52.80000000	     -7.38111264	     -4.43460735	     -3.40912225	      1.08238891	      0.93137241	      0.43740657	     34.51519958	     -9.19221462	     -7.80183259	     68.61178324	     68.61178324	     -4.21333947	    -18.50175517	      5.44111948	     15.11786877	     -4.77670366	     -8.57747831	     20.44173314	     20.44173314	     14.51266649	     -7.28193289	      0.61132325	    -11.67919011	      5.09760182	      2.26327479	      7.13493357	    -15.10009558	     -8.16273344	     34.42210108	     45.90935918	      0.00000000	      0.00000000	     -0.42574358	    -18.48375850	      0.28733395	     78.73982813	     47.18302626	      0.00000000	      0.00000000
     52.81157143	     -7.31690429	     -4.33466084	     -3.71464777	      1.08114106	      0.93192367	      0.43696258	     35.77824135	     -9.02347258	     -7.50059591	     67.33614303	     67.33614303	     -3.88791821	    -17.75091095	      4.71026110	     14.08545311	     -4.66686373	     -9.22691906	     19.72168824	     19.72168824	     14.76904145	     -6.56480233	      0.46060774	    -11.85505093	      4.98825976	      2.12777250	      5.67551900	    -15.72464777	     -8.31232178	     33.12532597	     45.96371357	      0.00000000	      0.00000000	      0.44084976	    -18.53278468	      0.25302022	     79.73279870	     47.21564659	      0.00000000	      0.00000000
     52.82314286	     -7.21583621	     -4.26602843	     -3.98324324	      1.07998146	      0.93246010	      0.43651265	     36.81269450	     -8.88188974	     -7.32346082	     65.80409792	     65.80409792	     -3.63837002	    -16.73336798	      3.73332202	     13.02966994	     -4.59745947	     -9.97234587	     19.02120560	     19.02120560	     15.01983673	     -5.63093752	      0.16922607	    -12.08240847	      4.91850539	      1.98546227	      4.29295803	    -16.32884780	     -8.56133975	     31.68488821	     46.03213522	      0.00000000	      0.00000000	      1.30533443	    -18.70422254	      0.37069607	     80.75057938	     47.23915968	      0.00000000	      0.00000000
     52.83471429	     -7.12524383	     -4.24330090	     -4.23407829	      1.07881004	      0.93283540	      0.43621867	     37.60458389	     -8.67590308	     -7.21740278	     63.83872022	     63.83872022	     -4.25672255	    -16.09611879	      0.36425162	     12.07001156	     -4.64903522	    -10.97081608	     18.47621671	     18.47621671	     15.15657417	     -4.32342112	     -0.79894962	    -12.24765923	      4.88012682	      1.80691403	      3.69568305	    -16.62608002	    -10.23384408	     28.49687289	     46.29122046	      0.00000000	      0.00000000	      2.26880569	    -19.41452297	      1.57244316	     81.70361119	     47.24330109	      0.00000000	      0.00000000
     52.84628571	     -7.05892720	     -4.14277605	     -4.42557985	      1.07765650	      0.93318931	      0.43583574	     38.37520167	     -8.57410387	     -7.10288702	     61.78487645	     61.78487645	     -3.88180290	    -14.83503997	      0.12365071	     11.08024552	     -4.46789250	    -11.44269998	     17.74356938	     17.74356938	     15.32268040	     -3.72268822	     -0.87189474	    -12.44041254	      4.77969675	      1.56252591	      2.28135463	    -17.17318576	    -10.53087442	     27.68484609	     46.33843707	      0.00000000	      0.00000000	      3.10546713	    -19.41863043	      1.31832796	     82.53117559	     47.28628151	      0.00000000	      0.00000000
     52.85785714	     -6.97064091	     -4.03069023	     -4.58720299	      1.07657604	      0.93341059	      0.43548908	     38.96757174	     -8.45380277	     -6.93000964	     59.43268495	     59.43268495	     -3.52442191	    -13.61283434	     -0.06017451	     10.10649385	     -4.28885834	    -11.98416125	     17.08586121	     17.08586121	     15.50894865	     -2.93823390	     -1.11549355	    -12.57508196	      4.70688860	      1.30444509	      0.94108800	    -17.66138568	    -10.86649643	     26.86186551	     46.39087583	      0.00000000	      0.00000000	      4.00157974	    -19.49843579	      1.28206201	     83.43163311	     47.31754797	      0.00000000	      0.00000000
     52.86942857	     -6.98607553	     -3.95762080	     -4.68155413	      1.07541277	      0.93340238	      0.43543349	     39.47956640	     -8.27747778	     -6.86427161	     56.75058384	     56.75058384	     -3.15808184	    -12.57958971	     -0.11335485	      9.31590728	     -4.17687752	    -12.43811351	     16.50548127	     16.50548127	     15.64346026	     -2.24809864	     -1.36237952	    -12.67212423	      4.57387782	      0.92238350	     -0.33883032	    -18.09346508	    -11.15950553	     26.21799105	     46.43295872	      0.00000000	      0.00000000	      4.83764513	    -19.63973622	      1.30418158	     84.22196966	     47.34057832	      0.00000000	      0.00000000
     52.88100000	     -6.94842660	     -3.84128088	     -4.75326654	      1.07441672	      0.93330265	      0.43545361	     39.76007649	     -8.12057871	     -6.76396869	     53.73538576	     53.73538576	     -2.79996783	    -11.58874936	     -0.15242537	      8.43284394	     -4.00634768	    -12.90671483	     15.87890109	     15.87890109	     15.79702368	     -1.45312944	     -1.70344810	    -12.78057380	      4.42392358	      0.64215882	     -1.67053996	    -18.46805962	    -11.48835319	     25.70374277	     46.47213931	      0.00000000	      0.00000000	      5.75968792	    -19.72605128	      1.41848771	     85.13832289	     47.36189112	      0.00000000	      0.00000000
     52.89257143	     -6.94035672	     -3.68163190	     -4.80502294	      1.07347287	      0.93298952	      0.43569087	     39.90126840	     -7.96911554	     -6.66036625	     50.40204220	     50.40204220	     -2.52059414	    -10.76185890	     -0.33310995	      7.59888100	     -3.81086904	    -13.43449354	     15.27160846	     15.27160846	     15.88602243	     -0.57090968	     -2.25959105	    -12.84165297	      4.18731063	      0.45860190	     -3.18293554	    -18.72633530	    -12.02738902	     25.57697173	     46.50965028	      0.00000000	      0.00000000	      6.83100599	    -19.91879590	      1.73679701	     86.11590238	     47.37965999	      0.00000000	      0.00000000
     52.90414286	     -6.95773925	     -3.56248098	     -4.79781579	      1.07260890	      0.93249993	      0.43603544	     39.83563523	     -7.78029438	     -6.69184899	     46.72952098	     46.72952098	     -2.23910548	    -10.02138719	     -0.41382354	      6.80814951	     -3.63332413	    -13.74499890	     14.68260120	     14.68260120	     15.97785853	      0.04781084	     -2.68105888	    -12.86052386	      4.00960546	      0.20178510	     -4.72872728	    -18.95134971	    -12.50136640	     25.77496587	     46.52522315	      0.00000000	      0.00000000	      7.84087519	    -19.97193358	      1.94762547	     86.96010758	     47.40117646	      0.00000000	      0.00000000
     52.91571429	     -7.01568564	     -3.47543512	     -4.73576476	      1.07185630	      0.93181926	      0.43645934	     39.59172400	     -7.56327044	     -6.86744710	     42.76979777	     42.76979777	     -1.96440071	     -9.27759690	     -0.15651065	      6.08788270	     -3.48018879	    -13.87416893	     14.15120438	     14.15120438	     16.16185954	      0.49441366	     -2.94516171	    -12.82401823	      3.89753054	     -0.19438340	     -6.13023533	    -19.16176444	    -12.75792182	     25.89702591	     46.52667412	      0.00000000	      0.00000000	      8.70905420	    -19.95378720	      1.98718855	     87.73216639	     47.42453677	      0.00000000	      0.00000000
     52.92728571	     -7.01213963	     -3.26226603	     -4.70564882	      1.07141386	      0.93088600	      0.43715364	     39.13316970	     -7.42423877	     -7.04590147	     38.66596340	     38.66596340	     -1.82310425	     -8.51373629	     -0.47732598	      5.21819166	     -3.20576363	    -14.20877958	     13.48984142	     13.48984142	     16.14439891	      1.12425347	     -3.81647565	    -12.80228965	      3.58298015	      0.04537156	     -8.90252747	    -19.22222521	    -13.67219099	     28.51444240	     46.44795723	      0.00000000	      0.00000000	     10.08465368	    -19.93018826	      2.77598940	     88.67534812	     47.44506802	      0.00000000	      0.00000000
     52.93885714	     -7.15271112	     -3.02905977	     -4.61970363	      1.07091347	      0.92952266	      0.43796730	     38.72537806	     -7.25866460	     -7.28114034	     34.56146741	     34.56146741	     -1.56845731	     -7.73827677	      0.21650782	      4.69195458	     -2.93304578	    -14.21962688	     13.17852118	     13.17852118	     16.44573788	      1.32375135	     -3.97557701	    -12.53597815	      3.20870975	     -0.49210946	     -9.98890150	    -19.22479200	    -13.71617313	     28.34683998	     46.44758183	      0.00000000	      0.00000000	     10.98545261	    -20.01223874	      2.59236735	     89.29074807	     47.47429597	      0.00000000	      0.00000000
     52.95042857	     -6.95552454	     -3.02267380	     -4.52215078	      1.07107810	      0.92854724	      0.43891888	     37.66619999	     -6.91071110	     -7.87087613	     30.39722281	     30.39722281	     -1.17823671	     -6.53980928	      1.14866022	      3.51909689	     -2.83531415	    -14.26187862	     12.46133662	     12.46133662	     16.77032402	      1.78753188	     -4.12089817	    -12.64350041	      3.14973597	     -0.56887210	    -11.50635358	    -19.34031470	    -13.80340050	     28.50070023	     46.43138912	      0.00000000	      0.00000000	     11.89068932	    -19.63709811	      2.53905422	     90.49287967	     47.51388091	      0.00000000	      0.00000000
